<svg width="36" height="37" viewBox="0 0 36 37" fill="none" xmlns="http://www.w3.org/2000/svg">
<path d="M18 3.60498C18.6105 3.60685 19.2035 3.80944 19.6875 4.18154V3.60498C19.6875 3.15743 19.5097 2.72821 19.1932 2.41174C18.8768 2.09527 18.4476 1.91748 18 1.91748H3.375C2.92745 1.91748 2.49822 2.09527 2.18176 2.41174C1.86529 2.72821 1.6875 3.15743 1.6875 3.60498V4.18042C2.17172 3.80883 2.76463 3.60665 3.375 3.60498H18Z" fill="white"/>
<path d="M25.1461 22.1675L23.9407 25.5425H26.684L25.478 22.1675H25.1461Z" fill="white"/>
<path d="M10.6875 13.7301C11.3877 13.73 12.0702 13.5106 12.6394 13.1029L11.4142 11.8783L12.2102 11.0824L13.4353 12.3075C13.8722 11.6908 14.0892 10.9453 14.0516 10.1904C14.0139 9.43563 13.7237 8.71536 13.2277 8.14523C12.7316 7.5751 12.0583 7.18817 11.3159 7.04655C10.5736 6.90493 9.80517 7.01682 9.13403 7.36428C8.46288 7.71173 7.92794 8.2746 7.61504 8.96253C7.30215 9.65047 7.22945 10.4236 7.40862 11.1578C7.5878 11.892 8.00844 12.5447 8.60305 13.0112C9.19766 13.4777 9.93175 13.7308 10.6875 13.7301Z" fill="white"/>
<path d="M3.375 16.5425H7.3125C7.41434 16.5425 7.51427 16.5701 7.60163 16.6224C7.68899 16.6748 7.76051 16.7498 7.80855 16.8396C7.8566 16.9294 7.87936 17.0306 7.87442 17.1323C7.86948 17.234 7.83702 17.3325 7.7805 17.4172L6.58012 19.2172L12.7159 16.588C12.7858 16.5578 12.8613 16.5423 12.9375 16.5425H18C18.4476 16.5425 18.8768 16.3647 19.1932 16.0482C19.5097 15.7318 19.6875 15.3025 19.6875 14.855V6.41748C19.6875 5.96993 19.5097 5.54071 19.1932 5.22424C18.8768 4.90777 18.4476 4.72998 18 4.72998H3.375C2.92745 4.72998 2.49822 4.90777 2.18176 5.22424C1.86529 5.54071 1.6875 5.96993 1.6875 6.41748V14.855C1.6875 15.3025 1.86529 15.7318 2.18176 16.0482C2.49822 16.3647 2.92745 16.5425 3.375 16.5425ZM10.6875 5.85498C11.5299 5.85331 12.3557 6.08852 13.0708 6.53376C13.7859 6.97901 14.3614 7.61635 14.7315 8.37302C15.1017 9.12968 15.2517 9.97519 15.1643 10.813C15.077 11.6508 14.7558 12.4472 14.2374 13.1112L15.0249 13.8987L14.229 14.6947L13.4415 13.9072C12.8757 14.3472 12.2131 14.6457 11.5086 14.7778C10.8042 14.91 10.0784 14.8719 9.39159 14.6669C8.70482 14.4619 8.07696 14.0958 7.56027 13.5991C7.04357 13.1023 6.653 12.4894 6.42106 11.8112C6.18912 11.1331 6.12251 10.4093 6.2268 9.70023C6.33108 8.99114 6.60323 8.3172 7.02059 7.73453C7.43795 7.15187 7.98846 6.67732 8.62627 6.35039C9.26409 6.02346 9.97078 5.85361 10.6875 5.85498Z" fill="white"/>
<path d="M32.625 19.355H18C17.5524 19.355 17.1232 19.5328 16.8068 19.8492C16.4903 20.1657 16.3125 20.5949 16.3125 21.0425V29.48C16.3125 29.9275 16.4903 30.3568 16.8068 30.6732C17.1232 30.9897 17.5524 31.1675 18 31.1675H23.0625C23.1385 31.1676 23.2137 31.1831 23.2836 31.213L29.4187 33.8422L28.2184 32.0422C28.1618 31.9574 28.1293 31.8588 28.1244 31.757C28.1195 31.6552 28.1424 31.5539 28.1906 31.4641C28.2388 31.3743 28.3104 31.2992 28.398 31.247C28.4855 31.1947 28.5856 31.1673 28.6875 31.1675H32.625C33.0726 31.1675 33.5018 30.9897 33.8182 30.6732C34.1347 30.3568 34.3125 29.9275 34.3125 29.48V21.0369C34.311 20.5903 34.1326 20.1625 33.8163 19.8472C33.5 19.532 33.0716 19.355 32.625 19.355ZM28.1576 29.6684L27.0855 26.6675H23.5418L22.4696 29.669L21.4104 29.291L24.2229 21.416C24.2618 21.3071 24.3332 21.2129 24.4275 21.146C24.5218 21.0792 24.6344 21.043 24.75 21.0425H25.875C25.991 21.0424 26.1042 21.0782 26.199 21.145C26.2939 21.2118 26.3658 21.3062 26.4049 21.4154L29.2174 29.2904L28.1576 29.6684Z" fill="white"/>
<path d="M32.625 16.5425H20.2359C19.976 16.8905 19.6387 17.1734 19.2506 17.3686C18.8626 17.5639 18.4344 17.6662 18 17.6675H16.4216C16.3531 17.8473 16.3162 18.0376 16.3125 18.23V18.806C16.7966 18.434 17.3895 18.2316 18 18.23H32.625C33.2354 18.2319 33.8283 18.4343 34.3125 18.806V18.23C34.3125 17.7824 34.1347 17.3532 33.8182 17.0367C33.5018 16.7203 33.0726 16.5425 32.625 16.5425Z" fill="white"/>
<path d="M32.625 5.85498L30.375 3.60498L25.875 10.355L32.625 5.85498Z" fill="white"/>
<path d="M28.125 12.0425L34.875 13.73V10.355L28.125 12.0425Z" fill="white"/>
<path d="M25.875 1.35498H22.5L24.1875 8.10498L25.875 1.35498Z" fill="white"/>
<path d="M3.375 30.605L5.625 32.855L10.125 26.105L3.375 30.605Z" fill="white"/>
<path d="M10.125 35.105H13.5L11.8125 28.355L10.125 35.105Z" fill="white"/>
<path d="M1.125 22.73V26.105L7.875 24.4175L1.125 22.73Z" fill="white"/>
</svg>
