<svg width="34" height="34" viewBox="0 0 34 34" fill="none" xmlns="http://www.w3.org/2000/svg">
<path d="M18.6434 31.436L16.2918 25.996C18.5584 25.1744 20.6409 24.0835 22.5676 22.7802L18.6293 31.436M8.00427 17.7085L2.56427 15.371L11.2201 11.4327C9.891 13.3826 8.81069 15.4908 8.00427 17.7085ZM30.6851 3.32936C30.6851 3.32936 33.6884 10.356 25.6559 18.4169C22.5393 21.491 19.1676 23.3752 16.1218 24.5652C15.0734 24.9619 13.8976 24.7069 13.1184 23.9135L10.1009 20.896C9.3076 20.1027 9.0526 18.941 9.4351 17.8785C10.6251 14.8752 12.5093 11.461 15.5834 8.34436C23.6443 0.306189 30.6851 3.32936 30.6851 3.32936ZM8.85427 31.1669H6.85677L12.6509 25.3585C13.0759 25.656 13.5434 25.8685 14.0251 25.996L8.85427 31.1669ZM2.83344 31.1669V29.1694L9.59094 22.3977L11.6168 24.4094L4.83094 31.1669H2.83344ZM2.83344 27.1435V25.146L8.00427 19.9752C8.13177 20.471 8.34427 20.9385 8.64177 21.3494L2.83344 27.1435ZM22.6668 8.50019C21.9153 8.50019 21.1947 8.7987 20.6633 9.33005C20.1319 9.86141 19.8334 10.5821 19.8334 11.3335C19.8334 12.085 20.1319 12.8056 20.6633 13.337C21.1947 13.8683 21.9153 14.1669 22.6668 14.1669C24.2393 14.1669 25.5001 12.906 25.5001 11.3335C25.5001 10.5821 25.2016 9.86141 24.6702 9.33005C24.1389 8.7987 23.4182 8.50019 22.6668 8.50019Z" fill="white"/>
</svg>
